<?xml version="1.0" encoding="utf-8"?>
<!-- Generator: Adobe Illustrator 18.1.1, SVG Export Plug-In . SVG Version: 6.00 Build 0)  -->
<svg version="1.1" id="Layer_1" xmlns="http://www.w3.org/2000/svg" xmlns:xlink="http://www.w3.org/1999/xlink" x="0px" y="0px"
	 viewBox="0 0 1000 1000" enable-background="new 0 0 1000 1000" xml:space="preserve">
<path fill="#512888" d="M459.6,608c-8-15.2-10.1-37.8-11.6-44.1l-11.5-3.1c-14.3-107.6,1-23.3,25-141.5c0.7,0.4,1.5,0.6,2.1,0.6
	c6.8,0,8.3-22.3,11.2-39.3c3.1-18.8,8.4-34.5-8.3-34.5c3.6-72.3,14.2-123.3-26-159.6c-40.2-36.2-60.4-34.9-28.2-61.4
	c-1.5-0.3-3.7-0.5-6.3-0.5c-27.2,0-110.2,15.7-162.3,61.9c-40.5,35.9-29.6,87.3-26.1,159.6c-16.7,0-11.4,15.7-8.2,34.5
	c2.9,17,4.3,39.3,11.2,39.3c0.6,0,1.3-0.2,2.1-0.6c24,118.2,39.3,33.8,25,141.5l-11.6,3.1c-1.5,6.3-3.6,29-11.6,44.1
	C48.3,696,50.2,665.9,32.8,892.5h618.7C634,665.9,635.9,696,459.6,608z M839.5,668.4c-46.8-19.8-37.2-23.6-38.6-29.4l-25.6-5.5
	c-13.6-17.6-11.3-62.5-9.3-78.6c13.8-1.4,36.8-19.1,60.7-24l-3.2-5.1l14.8-3.1c-65.5-88.1,20.4-292.6-145.6-292.6
	c-15.1,0-28.2,1.7-39.4,4.8c-5.9,2.2-6.1,8.6-7.7,10.9c-4.7-0.6-6.7-5.9-12.1-2.9c-0.1,0.1-0.3,0.1-0.5,0.3c0,0-0.1,0-0.2,0.1
	c-83.4,46.5-30.3,204.7-85.8,279.4l14.8,3.1l-3.1,5.1c23.9,4.9,46.9,22.6,60.7,24c2,16.1,4.2,61-9.3,78.6l-10.6,2.3
	c22.1,13.7,38,27.4,49.7,44.5c33.5,33.5,34.6,81.3,44.6,212.1h265.4C925,719,938,710.5,839.5,668.4z"/>
</svg>
