<?xml version="1.0" encoding="utf-8"?>
<!-- Generator: Adobe Illustrator 18.1.1, SVG Export Plug-In . SVG Version: 6.00 Build 0)  -->
<svg version="1.1" id="Layer_2" xmlns="http://www.w3.org/2000/svg" xmlns:xlink="http://www.w3.org/1999/xlink" x="0px" y="0px"
	 viewBox="0 0 1000 1000" enable-background="new 0 0 1000 1000" xml:space="preserve">
<path fill="#512888" d="M927.6,747.8H72.3c-9,0-16.3,7.4-16.3,16.5v63.5c0,9.1,7.3,16.5,16.3,16.5h855.3c9,0,16.4-7.3,16.4-16.5
	v-63.5C944,755.2,936.6,747.8,927.6,747.8z M927.6,155.8H72.3c-9,0-16.3,7.4-16.3,16.5v63.5c0,9.1,7.3,16.5,16.3,16.5h855.3
	c9,0,16.4-7.3,16.4-16.5v-63.5C944,163.2,936.6,155.8,927.6,155.8z M927.6,451.8H72.3c-9,0-16.3,7.4-16.3,16.5v63.5
	c0,9.1,7.3,16.5,16.3,16.5h855.3c9,0,16.4-7.3,16.4-16.5v-63.5C944,459.2,936.6,451.8,927.6,451.8z"/>
</svg>
