<?xml version="1.0" encoding="utf-8"?>
<!-- Generator: Adobe Illustrator 18.1.1, SVG Export Plug-In . SVG Version: 6.00 Build 0)  -->
<svg version="1.1" id="Layer_2" xmlns="http://www.w3.org/2000/svg" xmlns:xlink="http://www.w3.org/1999/xlink" x="0px" y="0px"
	 viewBox="0 0 1000 1000" enable-background="new 0 0 1000 1000" xml:space="preserve">
<path fill="#512888" d="M955.9,494.4c0-250.6-203.2-453.8-453.9-453.8c-150.4-2.7-256.9,56.1-317,117.6
	C52.4,282.6,49.6,414.7,48.2,494.4C48.2,745,251.3,948.3,502,948.3c3.2,0,213.3,10.9,374.6-202.3
	C912.1,696.8,964.1,605.1,955.9,494.4z M786.5,732.5c-4.3,11.3-9.4,24.8-16.3,34.6c-13.3,19.1-31,35.2-49.6,47.6
	c-22,14.5-35.7,38-57.3,52.7c-5.6,3.9-11.8,7.9-18.4,9.6c-5.8,1.5-14.1-0.6-19.2,3.2c-8.5,6.2-10.1,13.8-20.6,17.5
	c0,0-17.1-6.8-26.7,1.4c-17.8,19.1-26,16.4-51.9,16.4c-26-1.4-3.3-46.1,5.5-60.1c9.4-15.4,19.3-12.3,27.3-27.3
	c8.5-16,7.7-36.9-0.9-42.5c-11.7-7.8-27.8,1.7-38.5-7.8c-9.3-8.3-16.4,1.7-29-7.1c-8.4-5.9-6.5-20.6-13.7-30.1
	c-10.8-14.2-28.7-24.8-24.4-41.7c2.5-9.9-4-16.6-2.9-26.1c1.2-10.7-2.5-30.2,2.8-38.9c5.2-8.7,16.9,3.6,19.1-5.5
	c11.8-49.2-10-13.7-8.2-32.8c1.8-19.1-11.9-16.4-30.1-13.7c-18.2,5.5-27.3,0.9-38.3-13.7c-10.9-14.6-10-10-13.7-13.7
	c-3.7-3.6-7.3-19.1-10.9-21.9c-3.7-2.7-11.9,0.9-24.6-8.2c-34.6,12.8-41-12.7-46.5-21.9c-9.1-2.7-23-5-35.5-13.7
	c-17.6-12-16.5-23-13.2-43.2c1.2-7.3,0.3-15.8-0.9-23.1c-2.3-14.4-14.3-13.1-18.7-26.7c-4.2-13.1,3.3-40.6-4.8-52.4
	c-3.2-4.9-9.4-5.8-12.9-11c-15.6-23.3-10.3-60,4.6-81.8c10.7-15.8,38.4-31.9,38.3-52.2c0-8.2-1.1-4.7,3-10c5.3-7,7-8.8,9.3-17.8
	c2.7-10.1,6.5-32.9,11.2-42.2c2.6-5.3,19.6-19.6,41.5-5.9c12.3-15,19.7-31.6,49.8-24.8c5.9,1.3,8,9.4,14,11.5
	c6.5,2.3,13.4,4.4,19.9,3.8c8.7-0.7,22.8-14.7,31.3-17.7c4.6-1.6,7.9-5.4,13.1-5.4c4.3,0,7.9,2.9,12,2.9c4.7,0,8.7-3.9,13.6-2.7
	c12.2,2.8,6.9,27,1.5,28.7c-5.4,1.8-2,2-7.3,5.1c-4.8,2.9-6.1,9-11.5,11.4c-10.3,4.7-34.1-8.3-37.9,5c-3.5,12,8.3,21.1,18.5,24.8
	c5.7,2,6.4,11.2,11.4,14.7c7.4,5.6,7.7,24.1,23.5,18.5c4.6-1.7,5.6-6.3,5.6-10.7c0-7.5-3.8-12.3,3.4-16.7
	c19.8-11.9-11.4-31.8,14-35.8c17.6-2.8,21.7,31.5,38.3,28.2c9.4-2,15.4-18.5,23.8-11.8c7.8,6.3,7.9,8.1,16.3,13.5
	c10.2,6.3,29.7,21.4,22.7,28.4c-7,7,1.8,11.2-2.7,13.7c-5.6,3.2-7.5,4.7-13.8,5.2c-11.5,0.9-8.2,0.8-10.5,8.3
	c-2.2,7-6.7,15,1.6,19.4c2.4,1.4,2.6,2,2.6,5.4c0,7.5-14,9-22.8,15.3c-7.9,5.6-11.8,8-16.9,15.7c-4.2,6.3-8.2,10.5-14.2,15.1
	c-7.3,5.6-17.3,10.1-22,18.3c-5.9,10.4,4.4,21.4-2.1,30.6c-12.8,17.9-40.6-4.7-41.8,25c-0.1,5.5,2.2,11.9,3.9,17
	c3.1,8.6,10.7,24.4,2.7,32.6c-7.9,7.9-25.5-3-26.8-7.8c-2.3-9.1,2.1-27.4-4.5-34.6c-6.7-7.3-27.8-10.6-37.5-10.7
	c-15.4,0-14.4,12-30.2,9.1c-25.9-4.5-31.8,10-36.6,34.4c-2.3,11.5-5.2,16.7-7.1,28.5c-4.1,25.5,11.3,64.1,32.7,28.6
	c5.2-8.7,12.6-8.5,25.1-9.9c6-0.6,18.4-2.9,23.8-1c9.6,3.7,1.5,24.2-2.2,31.5c-3.6,7,16.3,21.9,16.3,21.9s10,5.5,16.4,16.4
	c6.4,10.9,15.5,16.4,21.9,16.4c6.4,0,10,11.9,24.6,10.9c14.6-0.9,24.6,2.7,24.6,2.7s12.6-14.6,22.6-10.9c5.4,2,9,6,14.3,7.2
	c6,1.2,9.9-2.6,15.6-2.5c5.2,0,7.9,2.2,12.3,4.4c18.7,9.6,38.2,3.2,57.4,9c17.6,5.4,35.1,26.1,52.7,31.1c14.6,4,30.2-6.6,41.7,5
	c7.5,7.5,3.8,15.8,6.8,24.5c4.4,12.3,16.1,9.4,26.6,13.2c14.1,5,16.9-9,31.5-9.9c8.4-0.6,12.7,9.7,21.9,16.4
	c10,7.5,23.1,4.7,24.6,16.4C835.7,700,795.7,708,786.5,732.5z"/>
</svg>
